<mxfile host="app.diagrams.net" agent="Mozilla/5.0 (Windows NT 10.0; Win64; x64; rv:129.0) Gecko/20100101 Firefox/129.0" version="26.1.1">
  <diagram name="Page-1" id="SmJROjKxYeMuHM-OUESZ">
    <mxGraphModel dx="740" dy="572" grid="1" gridSize="10" guides="1" tooltips="1" connect="1" arrows="1" fold="1" page="1" pageScale="1" pageWidth="827" pageHeight="1169" math="0" shadow="0">
      <root>
        <mxCell id="0" />
        <mxCell id="1" parent="0" />
        <mxCell id="Y7tds1XGn8WMuZVk-2sN-21" value="" style="rounded=0;whiteSpace=wrap;html=1;fillColor=#e1d5e7;strokeColor=#9673a6;" vertex="1" parent="1">
          <mxGeometry x="320" y="220" width="80" height="120" as="geometry" />
        </mxCell>
        <mxCell id="Y7tds1XGn8WMuZVk-2sN-20" value="" style="rounded=0;whiteSpace=wrap;html=1;fillColor=#d5e8d4;strokeColor=#82b366;" vertex="1" parent="1">
          <mxGeometry x="10" y="140" width="150" height="140" as="geometry" />
        </mxCell>
        <mxCell id="Y7tds1XGn8WMuZVk-2sN-1" value="" style="verticalLabelPosition=bottom;html=1;verticalAlign=top;align=center;strokeColor=none;fillColor=#00BEF2;shape=mxgraph.azure.laptop;pointerEvents=1;" vertex="1" parent="1">
          <mxGeometry x="113" y="301" width="60" height="40" as="geometry" />
        </mxCell>
        <mxCell id="Y7tds1XGn8WMuZVk-2sN-4" value="" style="verticalLabelPosition=bottom;html=1;verticalAlign=top;align=center;strokeColor=none;fillColor=#00BEF2;shape=mxgraph.azure.github_code;pointerEvents=1;" vertex="1" parent="1">
          <mxGeometry x="336.7" y="231.4" width="50" height="50" as="geometry" />
        </mxCell>
        <mxCell id="Y7tds1XGn8WMuZVk-2sN-22" value="" style="rounded=1;whiteSpace=wrap;html=1;fillColor=#ffe6cc;strokeColor=#d79b00;" vertex="1" parent="1">
          <mxGeometry x="564" y="190" width="96" height="110" as="geometry" />
        </mxCell>
        <mxCell id="Y7tds1XGn8WMuZVk-2sN-7" value="" style="points=[];aspect=fixed;html=1;align=center;shadow=0;dashed=0;fillColor=#FF6A00;strokeColor=none;shape=mxgraph.alibaba_cloud.amscloudapp;" vertex="1" parent="1">
          <mxGeometry x="329.99999999999994" y="291.4" width="56.699999999999996" height="39.6" as="geometry" />
        </mxCell>
        <mxCell id="Y7tds1XGn8WMuZVk-2sN-9" value="" style="image;sketch=0;aspect=fixed;html=1;points=[];align=center;fontSize=12;image=img/lib/mscae/Docker.svg;" vertex="1" parent="1">
          <mxGeometry x="90" y="159" width="50" height="41" as="geometry" />
        </mxCell>
        <mxCell id="Y7tds1XGn8WMuZVk-2sN-10" value="" style="verticalLabelPosition=bottom;html=1;verticalAlign=top;align=center;strokeColor=none;fillColor=#00BEF2;shape=mxgraph.azure.git_repository;" vertex="1" parent="1">
          <mxGeometry x="60" y="225.4" width="50" height="50" as="geometry" />
        </mxCell>
        <mxCell id="Y7tds1XGn8WMuZVk-2sN-11" value="" style="outlineConnect=0;dashed=0;verticalLabelPosition=bottom;verticalAlign=top;align=center;html=1;shape=mxgraph.aws3.android;fillColor=#FFD44F;gradientColor=none;" vertex="1" parent="1">
          <mxGeometry x="30" y="150" width="50" height="50" as="geometry" />
        </mxCell>
        <mxCell id="Y7tds1XGn8WMuZVk-2sN-12" value="" style="shape=image;html=1;verticalAlign=top;verticalLabelPosition=bottom;labelBackgroundColor=#ffffff;imageAspect=0;aspect=fixed;image=https://cdn1.iconfinder.com/data/icons/unicons-line-vol-3/24/docker-128.png;imageBackground=default;" vertex="1" parent="1">
          <mxGeometry x="572" y="215.4" width="80" height="80" as="geometry" />
        </mxCell>
        <mxCell id="Y7tds1XGn8WMuZVk-2sN-13" value="" style="shape=flexArrow;endArrow=classic;startArrow=classic;html=1;rounded=0;endSize=3;startSize=3;strokeWidth=1;" edge="1" parent="1">
          <mxGeometry width="100" height="100" relative="1" as="geometry">
            <mxPoint x="160" y="260" as="sourcePoint" />
            <mxPoint x="320" y="260" as="targetPoint" />
          </mxGeometry>
        </mxCell>
        <mxCell id="Y7tds1XGn8WMuZVk-2sN-14" value="" style="shape=flexArrow;endArrow=classic;html=1;rounded=0;endSize=3;startSize=3;" edge="1" parent="1">
          <mxGeometry width="50" height="50" relative="1" as="geometry">
            <mxPoint x="400" y="256" as="sourcePoint" />
            <mxPoint x="560" y="256" as="targetPoint" />
          </mxGeometry>
        </mxCell>
        <mxCell id="Y7tds1XGn8WMuZVk-2sN-17" value="&lt;div&gt;- FastAPI&lt;/div&gt;&lt;div&gt;- Docker&lt;/div&gt;&lt;div&gt;- git commands&lt;br&gt;&lt;/div&gt;" style="rounded=1;whiteSpace=wrap;html=1;align=left;fontStyle=1;fillColor=#f5f5f5;fontColor=#333333;strokeColor=#666666;" vertex="1" parent="1">
          <mxGeometry x="20" y="291" width="90" height="60" as="geometry" />
        </mxCell>
        <mxCell id="Y7tds1XGn8WMuZVk-2sN-18" value="&lt;div&gt;- Github Repo&lt;/div&gt;&lt;div&gt;- Github Actions&lt;/div&gt;&lt;div&gt;- Github secrets/Token&lt;br&gt;&lt;/div&gt;" style="rounded=1;whiteSpace=wrap;html=1;align=left;fontStyle=1;fillColor=#f5f5f5;fontColor=#333333;strokeColor=#666666;" vertex="1" parent="1">
          <mxGeometry x="290" y="147" width="136" height="60" as="geometry" />
        </mxCell>
        <mxCell id="Y7tds1XGn8WMuZVk-2sN-19" value="&lt;div&gt;- Docker HUB&lt;/div&gt;&lt;div&gt;- Private Repo&lt;/div&gt;&lt;div&gt;- Access Token&lt;br&gt;&lt;/div&gt;" style="rounded=1;whiteSpace=wrap;html=1;align=left;fontStyle=1;fillColor=#f5f5f5;fontColor=#333333;strokeColor=#666666;" vertex="1" parent="1">
          <mxGeometry x="550" y="310" width="120" height="60" as="geometry" />
        </mxCell>
      </root>
    </mxGraphModel>
  </diagram>
</mxfile>
